<?xml version="1.0" encoding="UTF-8"?>
<svg version="1.1" xmlns="http://www.w3.org/2000/svg" width="1024" height="1024">
<path d="M0 0 C337.92 0 675.84 0 1024 0 C1024 337.92 1024 675.84 1024 1024 C686.08 1024 348.16 1024 0 1024 C0 686.08 0 348.16 0 0 Z " fill="#FDFCFA" transform="translate(0,0)"/>
<path d="M0 0 C3.46946595 2.86788441 6.74807726 5.88946521 10 9 C10.68835938 9.61359375 11.37671875 10.2271875 12.0859375 10.859375 C25.97925189 23.70931796 37.32441365 46.11352334 38.12939453 65.04272461 C38.13108643 66.70573608 38.13108643 66.70573608 38.1328125 68.40234375 C38.13410156 69.62244141 38.13539063 70.84253906 38.13671875 72.09960938 C38.13285156 73.36611328 38.12898437 74.63261719 38.125 75.9375 C38.12886719 77.20013672 38.13273438 78.46277344 38.13671875 79.76367188 C38.13478516 81.59575195 38.13478516 81.59575195 38.1328125 83.46484375 C38.13168457 84.574646 38.13055664 85.68444824 38.12939453 86.82788086 C38 90 38 90 37 96 C32.05 95.67 27.1 95.34 22 95 C22.20882812 93.64648438 22.41765625 92.29296875 22.6328125 90.8984375 C23.8669592 80.82999246 23.8669592 80.82999246 20.33007812 71.71191406 C16.06794172 67.60828687 11.20729237 64.45791207 6.17871094 61.375 C-1.48779565 56.53661306 -1.48779565 56.53661306 -3 52 C-2.546875 49.42797852 -2.546875 49.42797852 -1.75 46.37890625 C-1.4715625 45.27869141 -1.193125 44.17847656 -0.90625 43.04492188 C-0.30303535 40.72696558 0.30112841 38.40925607 0.90625 36.09179688 C1.1846875 34.99029297 1.463125 33.88878906 1.75 32.75390625 C2.14445312 31.24292358 2.14445312 31.24292358 2.546875 29.70141602 C3.00108203 26.9935492 2.97266958 25.53698817 2 23 C-5.11754692 13.80938116 -16.09492746 6.79839605 -27 3 C-33.24800315 2.80123918 -37.92829828 6.98047607 -42.8125 10.4375 C-44.11864258 11.3356543 -44.11864258 11.3356543 -45.45117188 12.25195312 C-49.87682961 15.02785943 -49.87682961 15.02785943 -53 19 C-55.75 19.25 -55.75 19.25 -59 19 C-60.34600072 17.67945556 -61.67551104 16.34211943 -63 15 C-65.85861633 12.7787629 -68.82626503 10.73250088 -71.8125 8.6875 C-72.59431641 8.12482422 -73.37613281 7.56214844 -74.18164062 6.98242188 C-77.92943818 4.42440132 -80.07110593 3.00884661 -84.69140625 2.96484375 C-93.66264923 5.77166711 -101.12389187 10.75691325 -108.25 16.75 C-108.81090332 17.22163574 -109.37180664 17.69327148 -109.94970703 18.17919922 C-112.50554274 20.41147107 -113.9081322 21.7243966 -115 25 C-114.78567511 27.56297593 -114.78567511 27.56297593 -114.2578125 30.40234375 C-114.07863281 31.45744141 -113.89945313 32.51253906 -113.71484375 33.59960938 C-113.52019531 34.70111328 -113.32554687 35.80261719 -113.125 36.9375 C-112.84462891 38.58395508 -112.84462891 38.58395508 -112.55859375 40.26367188 C-111.67020009 45.77825823 -111.67020009 45.77825823 -110.3425293 51.19335938 C-110 53 -110 53 -111.51171875 55.44140625 C-114.3850614 58.39594225 -117.41123445 60.63482504 -120.8125 62.9375 C-123.23315313 64.59262488 -125.62257136 66.28346341 -128 68 C-128.65581055 68.43957031 -129.31162109 68.87914062 -129.98730469 69.33203125 C-132.67239632 71.30664409 -134.64897425 72.78868168 -135.59790039 76.06323242 C-135.80071443 78.45788856 -135.76571449 80.72616442 -135.625 83.125 C-135.58379028 84.38969116 -135.58379028 84.38969116 -135.54174805 85.67993164 C-135.12187461 94.91449552 -132.97530532 102.84899052 -129.38671875 111.34765625 C-128.93901123 112.41121338 -128.49130371 113.47477051 -128.0300293 114.57055664 C-127.69011963 115.37227295 -127.35020996 116.17398926 -127 117 C-126.08710205 117.08040527 -125.1742041 117.16081055 -124.23364258 117.24365234 C-120.831832 117.54694891 -117.43079032 117.85710882 -114.0300293 118.171875 C-112.56087648 118.30644894 -111.09147337 118.43831985 -109.62182617 118.56738281 C-107.50367034 118.75387808 -105.38661905 118.95022712 -103.26953125 119.1484375 C-101.36071167 119.32125244 -101.36071167 119.32125244 -99.41333008 119.49755859 C-96.27234004 119.95991161 -93.89846548 120.77115457 -91 122 C-90.01 122 -89.02 122 -88 122 C-86.22073153 119.80487579 -84.63357235 117.64926586 -83.0625 115.3125 C-81.77962246 113.44492265 -80.49373778 111.5806768 -79.18798828 109.72900391 C-78.12727496 108.18523659 -77.14910341 106.58549878 -76.18359375 104.98046875 C-74 103 -74 103 -70.296875 103.171875 C-69.60142578 103.30787109 -68.90597656 103.44386719 -68.18945312 103.58398438 C-64.56109592 104.27340461 -60.93315257 104.22383195 -57.25 104.25 C-56.50878906 104.270625 -55.76757812 104.29125 -55.00390625 104.3125 C-50.56925775 104.34434667 -48.30394469 103.93045529 -45 101 C-42.5625 100.015625 -42.5625 100.015625 -40 99.25 C-39.154375 98.98703125 -38.30875 98.7240625 -37.4375 98.453125 C-34.8907775 97.97969582 -33.4249914 98.16921591 -31 99 C-32.65 99.99 -34.3 100.98 -36 102 C-35.01 103.485 -35.01 103.485 -34 105 C-29.84673378 104.55500719 -25.70991876 104.10616365 -21.578125 103.48828125 C-6.35013258 101.29731499 8.50044866 101.04588198 23.6875 103.75 C24.57131348 103.90678223 25.45512695 104.06356445 26.36572266 104.22509766 C35.22648226 105.97179436 45.17271452 108.60188104 51 116 C52.6573754 119.56232555 53.46405445 122.67413015 52.125 126.5 C51.75375 126.995 51.3825 127.49 51 128 C50.01 128 49.02 128 48 128 C48 130.31 48 132.62 48 135 C49.32 134.67 50.64 134.34 52 134 C52.23290742 138.54079891 52.37462237 143.08006094 52.5 147.625 C52.56703125 148.91019531 52.6340625 150.19539062 52.703125 151.51953125 C52.89522332 160.78827528 52.89522332 160.78827528 50.40551758 164.15820312 C46.59053731 167.14633829 42.34565953 168.94784613 37.6875 170.25 C36.68074219 170.54390625 35.67398438 170.8378125 34.63671875 171.140625 C24.60946335 173.51011607 15.19523237 174.35598944 4.875 174.3125 C3.84986298 174.30976578 3.84986298 174.30976578 2.80401611 174.30697632 C-12.99942197 174.23602286 -31.63852659 173.63201048 -44.6875 163.4375 C-46.70033004 161.31586833 -47.99116231 159.72386175 -49 157 C-53.33229715 157.8604139 -53.33229715 157.8604139 -57 160 C-57.23653523 162.52596259 -57.42173692 165.03107207 -57.5625 167.5625 C-57.62727539 168.62887695 -57.62727539 168.62887695 -57.69335938 169.71679688 C-57.79971777 171.47761912 -57.90038846 173.2387832 -58 175 C-72.7723263 176.49383075 -88.1479296 170.87559322 -101 164 C-101.86753906 163.53851562 -102.73507813 163.07703125 -103.62890625 162.6015625 C-110.34315083 158.79787465 -116.1986654 154.06608044 -122 149 C-122.63808594 148.44699219 -123.27617187 147.89398437 -123.93359375 147.32421875 C-139.7343992 132.61815733 -149.80751012 109.38510961 -151.19067383 88.06030273 C-151.2666266 85.05806543 -151.27792179 82.06553618 -151.25 79.0625 C-151.24323242 78.00708008 -151.23646484 76.95166016 -151.22949219 75.86425781 C-151.13489528 68.75189025 -150.83191128 61.9065161 -149 55 C-148.75507813 54.071875 -148.51015625 53.14375 -148.2578125 52.1875 C-144.29466858 39.00040165 -137.66445751 26.66917513 -129 16 C-128.36320312 15.21109375 -127.72640625 14.4221875 -127.0703125 13.609375 C-95.90814136 -23.18451382 -38.30012798 -28.56180087 0 0 Z " fill="#0B4633" transform="translate(291,406)"/>
<path d="M0 0 C2.51708984 1.36694336 2.51708984 1.36694336 4.9609375 3.08984375 C5.84394531 3.70923828 6.72695312 4.32863281 7.63671875 4.96679688 C8.54035156 5.61712891 9.44398438 6.26746094 10.375 6.9375 C11.30183594 7.58396484 12.22867188 8.23042969 13.18359375 8.89648438 C18.20709122 12.45880254 18.20709122 12.45880254 20 14 C20 14.66 20 15.32 20 16 C21.98 16 23.96 16 26 16 C26.495 14.515 26.495 14.515 27 13 C30.16878025 10.30497364 33.67630208 8.07070557 37.125 5.75 C38.0634375 5.08742188 39.001875 4.42484375 39.96875 3.7421875 C46.93434909 -0.96007967 46.93434909 -0.96007967 51.75390625 -1.140625 C62.4045682 2.60184586 71.06919018 9.09889359 79 17 C79.76054687 17.64066406 80.52109375 18.28132813 81.3046875 18.94140625 C83 21 83 21 83.09375 23.41796875 C82.8978125 24.33191406 82.701875 25.24585938 82.5 26.1875 C82.18482422 27.75757813 82.18482422 27.75757813 81.86328125 29.359375 C81.22561659 32.04853093 80.55715686 34.7183 79.85546875 37.390625 C79.66339844 38.1431958 79.47132813 38.8957666 79.2734375 39.67114258 C78.88834945 41.16063107 78.48390175 42.64527265 78.05859375 44.1237793 C77.1292533 47.67726186 76.69468237 49.43084895 78.46801758 52.73657227 C78.97357178 53.48350342 79.47912598 54.23043457 80 55 C79.30962646 55.1458252 78.61925293 55.29165039 77.90795898 55.44189453 C70.02218977 57.31300436 62.14146724 59.50917339 56 65 C51.14468052 74.09966167 50.02199958 84.86580639 49 95 C47.96359375 95.25394531 46.9271875 95.50789063 45.859375 95.76953125 C44.48946007 96.11670147 43.1196751 96.46438479 41.75 96.8125 C41.06808594 96.97814453 40.38617188 97.14378906 39.68359375 97.31445312 C35.57144164 98.37110903 35.57144164 98.37110903 32.03125 100.62109375 C28.84126812 102.78660068 25.46345026 102.35333079 21.75 102.25 C21.02425781 102.24484375 20.29851562 102.2396875 19.55078125 102.234375 C14.63590383 102.16428762 9.86640322 101.68261765 5 101 C4.37955811 101.84763916 4.37955811 101.84763916 3.74658203 102.71240234 C1.87450369 105.26791283 -0.00021396 107.82147538 -1.875 110.375 C-2.52597656 111.26445313 -3.17695313 112.15390625 -3.84765625 113.0703125 C-4.47285156 113.92109375 -5.09804687 114.771875 -5.7421875 115.6484375 C-6.3182373 116.43395996 -6.89428711 117.21948242 -7.48779297 118.02880859 C-9 120 -9 120 -11 122 C-11.66 121.01 -12.32 120.02 -13 119 C-15.88879954 118.25273656 -15.88879954 118.25273656 -19.375 117.9375 C-20.02259277 117.855 -20.67018555 117.7725 -21.33740234 117.6875 C-25.31493194 117.20300354 -29.26159871 116.93169836 -33.265625 116.78515625 C-46.70150826 116.16040171 -46.70150826 116.16040171 -50.27734375 112.96484375 C-51.62863233 110.30744645 -52.35562185 107.90593759 -53 105 C-53.57441197 103.41340834 -54.15723042 101.82982481 -54.75 100.25 C-57.70325292 91.25288063 -58.69403197 80.35409705 -57 71 C-54.7644058 67.06466279 -51.82599115 65.3037677 -48 63 C-46.13579416 61.72167272 -44.29527959 60.4139295 -42.45751953 59.09790039 C-41.21605138 58.21486179 -39.96330408 57.3474226 -38.69873047 56.49780273 C-35.46713507 54.28938126 -33.35313775 52.69877522 -32 49 C-32.06692258 46.90630483 -32.06692258 46.90630483 -32.64453125 44.76953125 C-32.91813477 43.56393555 -32.91813477 43.56393555 -33.19726562 42.33398438 C-33.40029297 41.50189453 -33.60332031 40.66980469 -33.8125 39.8125 C-37.85164359 22.66313949 -37.85164359 22.66313949 -36.02636719 19.09863281 C-28.7364683 9.49801779 -12.40350427 -2.97672463 0 0 Z " fill="#D0A63F" transform="translate(212,409)"/>
<path d="M0 0 C-2.475 1.485 -2.475 1.485 -5 3 C-4.34 3.99 -3.68 4.98 -3 6 C1.15326622 5.55500719 5.29008124 5.10616365 9.421875 4.48828125 C24.64986742 2.29731499 39.50044866 2.04588198 54.6875 4.75 C55.57131348 4.90678223 56.45512695 5.06356445 57.36572266 5.22509766 C66.22648226 6.97179436 76.17271452 9.60188104 82 17 C83.6573754 20.56232555 84.46405445 23.67413015 83.125 27.5 C82.568125 28.2425 82.568125 28.2425 82 29 C81.01 29 80.02 29 79 29 C79 31.31 79 33.62 79 36 C80.32 35.67 81.64 35.34 83 35 C83.23290742 39.54079891 83.37462237 44.08006094 83.5 48.625 C83.56703125 49.91019531 83.6340625 51.19539062 83.703125 52.51953125 C83.89522332 61.78827528 83.89522332 61.78827528 81.40551758 65.15820312 C77.59053731 68.14633829 73.34565953 69.94784613 68.6875 71.25 C67.68074219 71.54390625 66.67398438 71.8378125 65.63671875 72.140625 C55.60946335 74.51011607 46.19523237 75.35598944 35.875 75.3125 C35.19157532 75.31067719 34.50815063 75.30885437 33.80401611 75.30697632 C18.00057803 75.23602286 -0.63852659 74.63201048 -13.6875 64.4375 C-15.70033004 62.31586833 -16.99116231 60.72386175 -18 58 C-22.60742865 59.21044132 -22.60742865 59.21044132 -27 61 C-27 59.35 -27 57.7 -27 56 C-27.60585937 56.02320313 -28.21171875 56.04640625 -28.8359375 56.0703125 C-31.56361752 56.12906253 -34.27287966 56.07802388 -37 56 C-37.88429687 56.00386719 -38.76859375 56.00773438 -39.6796875 56.01171875 C-42.5870831 55.7863735 -44.44390975 55.42644898 -47 54 C-49.80371042 49.9631478 -51.34299797 45.60332812 -53 41 C-53.74636719 39.23076172 -53.74636719 39.23076172 -54.5078125 37.42578125 C-58.64077658 27.52247662 -58.64077658 27.52247662 -57 23 C-55.45729365 20.57213426 -53.90272138 18.29677713 -52.1875 16 C-51.74857422 15.39671875 -51.30964844 14.7934375 -50.85742188 14.171875 C-49.99127181 12.98783628 -49.11239833 11.8129856 -48.22021484 10.6484375 C-46.82943556 8.82171951 -46.82943556 8.82171951 -45.17578125 6 C-44.45777344 5.34 -43.73976562 4.68 -43 4 C-39.296875 4.171875 -39.296875 4.171875 -37.18945312 4.58398438 C-33.56109592 5.27340461 -29.93315257 5.22383195 -26.25 5.25 C-25.13818359 5.2809375 -25.13818359 5.2809375 -24.00390625 5.3125 C-19.56925775 5.34434667 -17.30394469 4.93045529 -14 2 C-11.5625 1.015625 -11.5625 1.015625 -9 0.25 C-8.154375 -0.01296875 -7.30875 -0.2759375 -6.4375 -0.546875 C-3.8907775 -1.02030418 -2.4249914 -0.83078409 0 0 Z " fill="#F8F9F6" transform="translate(260,505)"/>
<path d="M0 0 C10.23 0 20.46 0 31 0 C36.63158389 18.31795086 42.01959952 36.6989958 47.34387207 55.10784912 C48.21641 58.12277204 49.09093818 61.1371161 49.96543884 64.15147018 C55.06801395 81.74309752 60.09138588 99.3529987 65 117 C57.41 117 49.82 117 42 117 C40.83008953 113.04259875 39.66393012 109.08415999 38.5 105.125 C38.16613281 103.99707031 37.83226562 102.86914062 37.48828125 101.70703125 C37.17246094 100.63066406 36.85664062 99.55429687 36.53125 98.4453125 C36.23798828 97.45031738 35.94472656 96.45532227 35.64257812 95.43017578 C35 93 35 93 35 91 C22.13 91 9.26 91 -4 91 C-5.32 96.61 -6.64 102.22 -8 108 C-8.99 110.97 -9.98 113.94 -11 117 C-18.59 117 -26.18 117 -34 117 C-26.21402193 89.57760743 -18.33245321 62.18487506 -10.33081436 34.82471848 C-9.68656628 32.62180729 -9.04254063 30.41883116 -8.39852905 28.21585083 C-7.37824743 24.72630259 -6.35716012 21.23699112 -5.33534241 17.74789238 C-4.77412812 15.83143846 -4.21329268 13.91487361 -3.65246582 11.99830627 C-3.31686646 10.85369431 -2.98126709 9.70908234 -2.63549805 8.52978516 C-2.34241257 7.52952301 -2.04932709 6.52926086 -1.74736023 5.49868774 C-1.19624793 3.65612577 -0.60817427 1.82452281 0 0 Z " fill="#0B4633" transform="translate(591,435)"/>
<path d="M0 0 C6.6 0 13.2 0 20 0 C20 14.19 20 28.38 20 43 C22.97 41.02 25.94 39.04 29 37 C36.43063657 33.79462736 46.71918616 33.57735344 54.4375 36.125 C62.53502906 39.87962352 66.88093007 45.75257165 70 54 C74.67165354 69.37547727 73.32338195 87.81873811 66.90234375 102.51171875 C61.98720488 111.25899978 53.64160007 116.81152758 44.13989258 119.53271484 C31.96478384 122.19137521 11.28281892 121.64140946 0 116 C0 77.72 0 39.44 0 0 Z " fill="#CFA63F" transform="translate(848,432)"/>
<path d="M0 0 C6.6 0 13.2 0 20 0 C20 15.18 20 30.36 20 46 C34.52 46 49.04 46 64 46 C64 30.82 64 15.64 64 0 C70.6 0 77.2 0 84 0 C84 37.95 84 75.9 84 115 C77.4 115 70.8 115 64 115 C64 98.83 64 82.66 64 66 C49.48 66 34.96 66 20 66 C20 82.17 20 98.34 20 115 C13.4 115 6.8 115 0 115 C0 77.05 0 39.1 0 0 Z " fill="#CCA43F" transform="translate(667,436)"/>
<path d="M0 0 C21.45 0 42.9 0 65 0 C65 6.93 65 13.86 65 21 C50.48 21 35.96 21 21 21 C21 29.91 21 38.82 21 48 C33.54 48 46.08 48 59 48 C59 54.6 59 61.2 59 68 C46.46 68 33.92 68 21 68 C21 83.51 21 99.02 21 115 C14.07 115 7.14 115 0 115 C0 77.05 0 39.1 0 0 Z " fill="#0A4734" transform="translate(378,436)"/>
<path d="M0 0 C21.12 0 42.24 0 64 0 C64 6.93 64 13.86 64 21 C50.14 21 36.28 21 22 21 C22 29.58 22 38.16 22 47 C33.88 47.33 45.76 47.66 58 48 C58 54.6 58 61.2 58 68 C45.79 68 33.58 68 21 68 C21 83.51 21 99.02 21 115 C14.07 115 7.14 115 0 115 C0 77.05 0 39.1 0 0 Z " fill="#0D4633" transform="translate(498,436)"/>
<path d="M0 0 C6.6 0 13.2 0 20 0 C20.01458252 1.83216064 20.02916504 3.66432129 20.04418945 5.55200195 C20.09581972 11.60310463 20.16109969 17.65393932 20.23571491 23.70480061 C20.28045714 27.37373474 20.31970434 31.04255685 20.34643555 34.71166992 C20.37243074 38.25210062 20.41280517 41.79210112 20.46318626 45.33226585 C20.48800978 47.34131035 20.49790981 49.35052117 20.50764465 51.35969543 C20.53733589 53.19125435 20.53733589 53.19125435 20.56762695 55.05981445 C20.57873001 56.13681107 20.58983307 57.21380768 20.60127258 58.32344055 C21.0501531 61.33666548 21.59556022 62.20757022 24 64 C28.18610447 66.09305223 33.4439345 65.43336793 38 65 C40.32628582 64.18893363 42.27175141 63.23694916 44.37890625 61.97265625 C46 61 46 61 49 60 C49 40.2 49 20.4 49 0 C55.27 0 61.54 0 68 0 C68 27.39 68 54.78 68 83 C62.06 83 56.12 83 50 83 C49.505 79.04 49.505 79.04 49 75 C48.13375 75.763125 47.2675 76.52625 46.375 77.3125 C38.17076282 84.12684288 29.34346503 84.84762362 19 84 C11.91606929 82.33006438 6.85560254 78.11302786 3 72 C-0.64680208 64.53577862 -0.38799897 57.39067517 -0.29296875 49.21875 C-0.28736409 47.79529266 -0.28309811 46.37182948 -0.28010559 44.94836426 C-0.2687251 41.22631473 -0.23931791 37.50462395 -0.20599365 33.78271484 C-0.17514493 29.97498424 -0.16156883 26.16719491 -0.14648438 22.359375 C-0.11444037 14.90606856 -0.06172955 7.45313053 0 0 Z " fill="#CDA53F" transform="translate(765,468)"/>
<path d="M0 0 C0.7748877 0.40629639 1.54977539 0.81259277 2.34814453 1.23120117 C8.14220527 4.20971192 13.54541397 6.76753653 19.875 8.3125 C21.08929688 8.61800781 22.30359375 8.92351563 23.5546875 9.23828125 C29.35251659 10.52011421 34.89209393 11.17400722 40.828125 11.23828125 C41.57065521 11.24802979 42.31318542 11.25777832 43.07821655 11.26782227 C70.02787681 11.86199403 70.02787681 11.86199403 95.15234375 3.05078125 C97 2 97 2 100 1 C100.20478598 5.16593199 100.32813027 9.33055793 100.4375 13.5 C100.52547852 15.25957031 100.52547852 15.25957031 100.61523438 17.0546875 C100.73251271 23.01912855 100.67472852 27.04729377 96.69140625 31.703125 C83.99421261 44.17886579 62.7328033 44.30420636 46.07324219 44.31469727 C30.29818648 44.12826479 14.61840837 40.90410701 2.12890625 30.640625 C-1.6765567 25.74176143 -0.51066692 18.97854595 -0.3125 13.125 C-0.28994141 11.86429688 -0.26738281 10.60359375 -0.24414062 9.3046875 C-0.18537581 6.20190501 -0.10325851 3.10156801 0 0 Z " fill="#0C4533" transform="translate(243,577)"/>
<path d="M0 0 C0.57572754 0.40702148 1.15145508 0.81404297 1.74462891 1.23339844 C6.17686922 4.29106578 10.142837 6.77046805 15.375 8.25 C16.37273437 8.54390625 17.37046875 8.8378125 18.3984375 9.140625 C28.08433164 11.4517928 37.27913474 12.31934664 47.21484375 12.26074219 C49.36487243 12.25005036 51.5140595 12.26068075 53.6640625 12.2734375 C68.57661588 12.28948804 85.67957523 11.32356469 98 2 C98.66 2 99.32 2 100 2 C100.23290742 6.54079891 100.37462237 11.08006094 100.5 15.625 C100.60054687 17.55279297 100.60054687 17.55279297 100.703125 19.51953125 C100.89522332 28.78827528 100.89522332 28.78827528 98.40551758 32.15820312 C94.59053731 35.14633829 90.34565953 36.94784613 85.6875 38.25 C84.17736328 38.69085937 84.17736328 38.69085937 82.63671875 39.140625 C72.60946335 41.51011607 63.19523237 42.35598944 52.875 42.3125 C52.19157532 42.31067719 51.50815063 42.30885437 50.80401611 42.30697632 C35.01204192 42.23607433 16.18507805 41.67891007 3.25 31.3125 C-0.23001781 27.73581503 -0.12054471 25.79656785 -0.09765625 20.8984375 C-0.09443359 19.68671875 -0.09121094 18.475 -0.08789062 17.2265625 C-0.07951172 15.95554687 -0.07113281 14.68453125 -0.0625 13.375 C-0.05798828 12.09625 -0.05347656 10.8175 -0.04882812 9.5 C-0.03701203 6.33328708 -0.02053815 3.16666644 0 0 Z " fill="#0B4532" transform="translate(243,538)"/>
<path d="M0 0 C0.88333008 0.15686279 1.76666016 0.31372559 2.67675781 0.4753418 C11.53723254 2.22015572 21.48222285 4.85206525 27.3125 12.25 C28.5625 15.8125 28.5625 15.8125 28.3125 19.25 C21.01998191 29.04932118 8.60559746 30.68215985 -2.6875 32.4375 C-22.68444391 34.84284086 -49.39094457 35.31706125 -66.8125 23.75 C-70.99300918 20.11477462 -70.99300918 20.11477462 -71.6875 17.25 C-71.75537102 14.12793308 -71.40219382 12.15512948 -69.44140625 9.671875 C-53.26996865 -5.68517365 -20.18506688 -3.6261944 0 0 Z " fill="#0B4633" transform="translate(314.6875,509.75)"/>
<path d="M0 0 C1.03398926 0.57540527 2.06797852 1.15081055 3.13330078 1.74365234 C6.63709144 4.50144771 7.23235458 6.29091057 8.37109375 10.55859375 C8.89026367 12.46801758 8.89026367 12.46801758 9.41992188 14.41601562 C9.67020142 15.40661987 9.67020142 15.40661987 9.92553711 16.41723633 C10.43688458 18.43507149 10.9838026 20.44057692 11.53710938 22.44726562 C14.44483147 33.43878872 14.44483147 33.43878872 13 38 C11.47718508 40.27858233 9.95769116 42.37278933 8.25 44.5 C7.81945312 45.05558594 7.38890625 45.61117187 6.9453125 46.18359375 C5.65763857 47.82210099 4.37165728 49.43056888 3 51 C2.2668457 51.88631104 1.53369141 52.77262207 0.77832031 53.68579102 C-3.62858146 57.35653107 -7.81835964 56.30192246 -13.21484375 55.86132812 C-13.91851074 55.78986572 -14.62217773 55.71840332 -15.34716797 55.64477539 C-17.49267684 55.43820508 -19.6334124 55.31189607 -21.78515625 55.18945312 C-31.72619226 54.39909526 -31.72619226 54.39909526 -35.02050781 50.78076172 C-36.33166375 48.19909472 -37.21908415 45.78380077 -38 43 C-38.57747017 41.41451887 -39.15979342 39.83078411 -39.75 38.25 C-42.70002681 29.26270902 -43.70805327 18.34341943 -42 9 C-39.7312329 5.04537321 -36.80443495 3.37643976 -33 1 C-31.61941406 -0.35738281 -31.61941406 -0.35738281 -30.2109375 -1.7421875 C-20.16565046 -11.29515601 -10.91457431 -6.28813246 0 0 Z " fill="#FAFAF7" transform="translate(197,471)"/>
<path d="M0 0 C6.93 0 13.86 0 21 0 C21 37.95 21 75.9 21 115 C14.07 115 7.14 115 0 115 C0 77.05 0 39.1 0 0 Z " fill="#09422F" transform="translate(459,436)"/>
<path d="M0 0 C13.43089593 7.57915939 13.43089593 7.57915939 16.18554688 14.66992188 C17.75299956 22.35655922 18.1720255 31.84083031 13.77050781 38.69384766 C10.66936343 41.94089273 6.99762994 43.88147258 2.96386719 45.765625 C-0.11844867 47.29192651 -2.78408101 49.28881872 -5.5859375 51.28125 C-12.67623798 56.10848197 -12.67623798 56.10848197 -17.37109375 55.30761719 C-34.74542565 50.11962633 -34.74542565 50.11962633 -38.36181641 44.56835938 C-40.14794259 39.87384217 -40.6633753 35.07825439 -40.84936523 30.08398438 C-40.99865534 26.91916476 -41.48597447 23.82283249 -41.97998047 20.6953125 C-41.94864436 17.44278521 -40.3110818 15.75267786 -38.078125 13.53515625 C-14.2003797 -6.95036325 -14.2003797 -6.95036325 0 0 Z " fill="#FAFAF6" transform="translate(216.9609375,411.28125)"/>
<path d="M0 0 C9.23590505 4.16625406 16.83844679 9.86526909 24 17 C24.76054687 17.639375 25.52109375 18.27875 26.3046875 18.9375 C28 21 28 21 28.09375 23.453125 C27.66922178 25.45287637 27.2256517 27.4486233 26.76953125 29.44140625 C26.19587392 32.09420739 25.87407134 34.35623204 25.69921875 37.02734375 C25.2474397 41.43581616 24.6884548 45.36631629 22 49 C16.33467432 53.17498547 6.14376686 58.71848682 -1.09741211 57.70703125 C-5.10605593 56.21735686 -8.57553058 53.48287463 -12.05688477 51.03540039 C-15.14746243 48.87045954 -17.97934806 47.00940863 -21.4296875 45.4375 C-25.08343735 43.61537021 -26.7489797 42.44507821 -29 39 C-31.26163857 30.94868788 -31.66305425 21.98510116 -29 14 C-25.22655522 8.74577937 -19.7219187 5.71986119 -13.97900391 2.97363281 C-11.82097414 1.97687053 -11.82097414 1.97687053 -9.38671875 0.1484375 C-5.88795807 -1.53509055 -3.72081075 -0.93321956 0 0 Z " fill="#FAFAF5" transform="translate(267,409)"/>
<path d="M0 0 C7.27431192 5.48682074 10.60300519 14.03951641 12.140625 22.81640625 C13.4355935 37.14548314 13.41862362 54.98200572 4.609375 67.1484375 C-1.58629461 74.18447719 -8.62037988 78.84619652 -17.859375 80.81640625 C-19.4603248 80.90637586 -21.0644944 80.94703184 -22.66796875 80.94921875 C-23.57998047 80.95050781 -24.49199219 80.95179688 -25.43164062 80.953125 C-26.37716797 80.94925781 -27.32269531 80.94539062 -28.296875 80.94140625 C-29.23853516 80.94527344 -30.18019531 80.94914063 -31.15039062 80.953125 C-32.06369141 80.95183594 -32.97699219 80.95054687 -33.91796875 80.94921875 C-34.74611084 80.94809082 -35.57425293 80.94696289 -36.42749023 80.94580078 C-38.98570956 80.8096843 -41.36253151 80.37670071 -43.859375 79.81640625 C-43.859375 79.48640625 -43.859375 79.15640625 -43.859375 78.81640625 C-42.79976562 78.75582031 -41.74015625 78.69523438 -40.6484375 78.6328125 C-39.26040279 78.54840498 -37.87238268 78.46375708 -36.484375 78.37890625 C-35.78570313 78.33958984 -35.08703125 78.30027344 -34.3671875 78.25976562 C-30.48577008 78.07360491 -30.48577008 78.07360491 -26.859375 76.81640625 C-27.519375 76.48640625 -28.179375 76.15640625 -28.859375 75.81640625 C-28.859375 75.15640625 -28.859375 74.49640625 -28.859375 73.81640625 C-27.539375 73.81640625 -26.219375 73.81640625 -24.859375 73.81640625 C-24.859375 72.82640625 -24.859375 71.83640625 -24.859375 70.81640625 C-25.849375 70.81640625 -26.839375 70.81640625 -27.859375 70.81640625 C-27.859375 69.49640625 -27.859375 68.17640625 -27.859375 66.81640625 C-31.159375 66.15640625 -34.459375 65.49640625 -37.859375 64.81640625 C-37.859375 64.48640625 -37.859375 64.15640625 -37.859375 63.81640625 C-36.78558594 63.77902344 -35.71179688 63.74164062 -34.60546875 63.703125 C-33.1692388 63.63741513 -31.73304238 63.57096957 -30.296875 63.50390625 C-29.59240234 63.48134766 -28.88792969 63.45878906 -28.16210938 63.43554688 C-23.09004939 63.17843784 -19.34823876 62.24717882 -14.859375 59.81640625 C-13.06401789 57.96791165 -13.06401789 57.96791165 -11.984375 55.81640625 C-11.59507812 55.13578125 -11.20578125 54.45515625 -10.8046875 53.75390625 C-8.17792619 48.37013099 -8.599243 42.99761331 -8.546875 37.12890625 C-8.51787109 36.06478516 -8.48886719 35.00066406 -8.45898438 33.90429688 C-8.40393861 27.04898251 -9.14491641 22.62828226 -12.859375 16.81640625 C-17.02004113 13.64637491 -21.15743956 13.24793448 -26.25390625 13.38671875 C-31.54219401 14.25885016 -36.1010157 17.05804695 -39.859375 20.81640625 C-40.18826888 22.67177049 -40.18826888 22.67177049 -40.17822266 24.80712891 C-40.19809235 25.62782867 -40.21796204 26.44852844 -40.23843384 27.2940979 C-40.24998505 28.18060028 -40.26153625 29.06710266 -40.2734375 29.98046875 C-40.29280365 30.8876767 -40.3121698 31.79488464 -40.3321228 32.72958374 C-40.39200716 35.63342829 -40.43833916 38.53731229 -40.484375 41.44140625 C-40.52254665 43.40756958 -40.56159789 45.37371605 -40.6015625 47.33984375 C-40.69771591 52.16522795 -40.781714 56.99069043 -40.859375 61.81640625 C-41.189375 61.81640625 -41.519375 61.81640625 -41.859375 61.81640625 C-41.95838316 55.92656338 -42.03090981 50.0372068 -42.07910156 44.14672852 C-42.09919491 42.14371297 -42.12647465 40.14075593 -42.16113281 38.13793945 C-42.20975111 35.25587517 -42.23236652 32.37458759 -42.25 29.4921875 C-42.27064514 28.5992952 -42.29129028 27.70640289 -42.31256104 26.78645325 C-42.31410556 22.48965733 -42.24014917 20.40037937 -39.83496094 16.71166992 C-39.18301758 16.08623291 -38.53107422 15.4607959 -37.859375 14.81640625 C-38.519375 14.81640625 -39.179375 14.81640625 -39.859375 14.81640625 C-40.0140625 13.85734375 -40.0140625 13.85734375 -40.171875 12.87890625 C-40.39875 12.19828125 -40.625625 11.51765625 -40.859375 10.81640625 C-41.849375 10.48640625 -42.839375 10.15640625 -43.859375 9.81640625 C-33.16613595 -3.77536646 -15.7355765 -10.01655395 0 0 Z " fill="#CDA53E" transform="translate(907.859375,471.18359375)"/>
<path d="M0 0 C4.02030086 2.87164347 6.07592353 6.22777059 7.625 10.875 C7.93624064 14.72374662 7.94906041 18.57766841 8 22.4375 C8.05607422 24.00854492 8.05607422 24.00854492 8.11328125 25.61132812 C8.19721112 33.11372577 6.80533074 38.59108327 2.625 44.875 C-2.06691052 49.56691052 -5.75895331 49.99965457 -12.26757812 50.01171875 C-12.98365234 50.00785156 -13.69972656 50.00398437 -14.4375 50 C-15.15744141 50.00386719 -15.87738281 50.00773438 -16.61914062 50.01171875 C-19.80208639 50.00580799 -22.33447862 49.88850713 -25.375 48.875 C-25.52351066 42.98521944 -25.63229323 37.09653228 -25.70458984 31.20532227 C-25.73473149 29.20219943 -25.77565315 27.19920825 -25.82763672 25.1965332 C-25.90056881 22.31428549 -25.93448174 19.43378445 -25.9609375 16.55078125 C-25.99190521 15.65788895 -26.02287292 14.76499664 -26.05477905 13.845047 C-26.05806306 7.75440906 -26.05806306 7.75440906 -24.0960083 5.22836304 C-22.51025391 3.88354492 -22.51025391 3.88354492 -19.375 1.875 C-18.4675 1.276875 -17.56 0.67875 -16.625 0.0625 C-10.97757176 -2.0009834 -5.6856579 -1.8952193 0 0 Z " fill="#FBFBF8" transform="translate(892.375,485.125)"/>
<path d="M0 0 C2.04513553 1.00640981 4.06170463 2.0345546 6.05078125 3.1484375 C20.3872478 10.92330882 35.79627435 12.25413828 51.8125 12.3125 C52.49853302 12.31511841 53.18456604 12.31773682 53.89138794 12.32043457 C67.65181578 12.32605181 81.12113214 11.54889787 93.33813477 4.69824219 C93.88655029 4.46782227 94.43496582 4.23740234 95 4 C95.99 4.495 95.99 4.495 97 5 C96.67 5.99 96.34 6.98 96 8 C96.99 7.67 97.98 7.34 99 7 C99.495 8.98 99.495 8.98 100 11 C88.601961 19.04567459 75.00315592 22.08861879 61.171875 22.23828125 C60.42934479 22.24798447 59.68681458 22.25768768 58.92178345 22.26768494 C56.53113378 22.29253651 54.14076577 22.30519703 51.75 22.3125 C50.9383136 22.31511841 50.1266272 22.31773682 49.29034424 22.32043457 C37.41582797 22.32455307 26.34493655 21.82090135 15 18 C13.46279297 17.49726562 13.46279297 17.49726562 11.89453125 16.984375 C7.33852259 15.32764458 3.47621941 13.47621941 0 10 C-1 7 -1 7 -0.0625 4.8125 C0.288125 4.214375 0.63875 3.61625 1 3 C0.34 2.34 -0.32 1.68 -1 1 C-0.67 0.67 -0.34 0.34 0 0 Z " fill="#F4F7F5" transform="translate(243,567)"/>
<path d="M0 0 C2.2371917 2.2371917 2.57850298 3.41943011 3.42041016 6.41796875 C3.68052887 7.33231689 3.94064758 8.24666504 4.20864868 9.1887207 C4.48268524 10.17831787 4.7567218 11.16791504 5.0390625 12.1875 C5.32478119 13.20094482 5.61049988 14.21438965 5.90487671 15.25854492 C6.5080634 17.40293355 7.10804484 19.54822596 7.70507812 21.69433594 C8.62176499 24.98837526 9.54828972 28.27952153 10.4765625 31.5703125 C11.06047546 33.65087908 11.64382783 35.73160309 12.2265625 37.8125 C12.50464752 38.80209717 12.78273254 39.79169434 13.06924438 40.8112793 C13.32305878 41.72562744 13.57687317 42.63997559 13.83837891 43.58203125 C14.1757457 44.79209839 14.1757457 44.79209839 14.51992798 46.02661133 C15 48 15 48 15 50 C5.43 50 -4.14 50 -14 50 C-12.68892437 43.44462185 -11.30775084 37.16163503 -9.43359375 30.78125 C-9.07516136 29.54441467 -9.07516136 29.54441467 -8.70948792 28.28259277 C-8.20973601 26.56119671 -7.70800549 24.84037391 -7.2043457 23.12011719 C-6.43160967 20.47987425 -5.66552985 17.83776588 -4.90039062 15.1953125 C-4.41184229 13.51551328 -3.92292359 11.83582173 -3.43359375 10.15625 C-3.20441757 9.3667395 -2.97524139 8.577229 -2.73912048 7.76379395 C-1.11628992 2.23257984 -1.11628992 2.23257984 0 0 Z " fill="#F6F8F6" transform="translate(606,458)"/>
<path d="M0 0 C0.33 0 0.66 0 1 0 C1.86185382 25.32154017 2.15576835 50.64800673 2.23217773 75.98269653 C2.24258259 79.33504284 2.26006322 82.68723988 2.28344727 86.03952026 C2.31079714 90.04403553 2.32315877 94.04832487 2.32407379 98.05293083 C2.32676052 99.55145997 2.33455442 101.04998922 2.3476181 102.54846382 C2.36455807 104.61200095 2.36290763 106.67470391 2.35644531 108.73828125 C2.36191376 110.48685425 2.36191376 110.48685425 2.36749268 112.27075195 C2.24622009 113.17140381 2.12494751 114.07205566 2 115 C-1.76530821 117.51020547 -5.05559774 117.55863664 -9.4375 117.8125 C-10.5831543 117.90821289 -10.5831543 117.90821289 -11.75195312 118.00585938 C-12.49251953 118.05162109 -13.23308594 118.09738281 -13.99609375 118.14453125 C-15.00434204 118.21184448 -15.00434204 118.21184448 -16.03295898 118.28051758 C-18.75611176 117.89217172 -19.99457485 116.86085957 -22 115 C-22.51898193 112.85493469 -22.51898193 112.85493469 -22.54589844 110.3449707 C-22.56561707 109.40422195 -22.58533569 108.46347321 -22.60565186 107.49421692 C-22.60688049 106.48163315 -22.60810913 105.46904938 -22.609375 104.42578125 C-22.62591125 103.38681198 -22.64244751 102.34784271 -22.65948486 101.27738953 C-22.70810857 97.95570042 -22.72936814 94.63446958 -22.75 91.3125 C-22.77814758 89.06182572 -22.80807329 86.81117293 -22.83984375 84.56054688 C-22.91722296 79.04015082 -22.9576106 73.52121998 -23 68 C-42.305 67.505 -42.305 67.505 -62 67 C-61.98839844 69.96226562 -61.97679687 72.92453125 -61.96484375 75.9765625 C-61.95703767 78.85595594 -61.95096973 81.73534819 -61.94506836 84.61474609 C-61.94004978 86.61084524 -61.93323349 88.60694073 -61.92456055 90.60302734 C-61.91238644 93.47754826 -61.90674684 96.35202044 -61.90234375 99.2265625 C-61.89718246 100.11429352 -61.89202118 101.00202454 -61.88670349 101.91665649 C-61.88630092 106.39600242 -62.0884947 110.59071138 -63 115 C-63.33 115 -63.66 115 -64 115 C-64 98.83 -64 82.66 -64 66 C-49.48 66 -34.96 66 -20 66 C-20 82.17 -20 98.34 -20 115 C-13.4 115 -6.8 115 0 115 C0 77.05 0 39.1 0 0 Z " fill="#FEFDDB" transform="translate(751,436)"/>
<path d="M0 0 C0.14505993 4.58300125 0.23399681 9.16541363 0.3125 13.75 C0.35439453 15.05195312 0.39628906 16.35390625 0.43945312 17.6953125 C0.45556641 18.94570313 0.47167969 20.19609375 0.48828125 21.484375 C0.51446533 22.63647461 0.54064941 23.78857422 0.56762695 24.97558594 C0 28 0 28 -2.32348633 30.39160156 C-5.475939 32.28600621 -7.38405908 32.3363666 -11 32 C-10.67 30.68 -10.34 29.36 -10 28 C-10.763125 28.350625 -11.52625 28.70125 -12.3125 29.0625 C-15 30 -15 30 -18 29 C-17.01 28.46375 -16.02 27.9275 -15 27.375 C-11.68720222 25.30231384 -11.68720222 25.30231384 -11.5 21.875 C-11.73686321 18.87947452 -11.73686321 18.87947452 -14 17 C-16.32275177 16.59952556 -18.65739357 16.2602896 -21 16 C-20.34 15.67 -19.68 15.34 -19 15 C-19 14.34 -19 13.68 -19 13 C-18.01 12.34 -17.02 11.68 -16 11 C-17.32 11 -18.64 11 -20 11 C-20 11.66 -20 12.32 -20 13 C-20.99 13 -21.98 13 -23 13 C-23 12.34 -23 11.68 -23 11 C-25.31 11 -27.62 11 -30 11 C-30 10.67 -30 10.34 -30 10 C-29.43603516 9.87471924 -28.87207031 9.74943848 -28.29101562 9.62036133 C-25.69022898 9.03326729 -23.09537173 8.42306849 -20.5 7.8125 C-19.613125 7.61591797 -18.72625 7.41933594 -17.8125 7.21679688 C-12.37988256 5.91856109 -8.15811624 4.21322793 -3.57617188 0.99487305 C-2 0 -2 0 0 0 Z " fill="#0D3E2D" transform="translate(343,540)"/>
<path d="M0 0 C0.33 0 0.66 0 1 0 C1 8.58 1 17.16 1 26 C0.01 26 -0.98 26 -2 26 C-1.67 25.34 -1.34 24.68 -1 24 C-2.32 23.34 -3.64 22.68 -5 22 C-5 21.34 -5 20.68 -5 20 C-5.66 20 -6.32 20 -7 20 C-7.268125 20.763125 -7.53625 21.52625 -7.8125 22.3125 C-9.6612529 26.49651972 -9.6612529 26.49651972 -12 28 C-15.49247517 27.9272401 -17.3225524 27.61188815 -19.9375 25.25 C-21 23 -21 23 -20.875 20.4375 C-19.45098039 16.47058824 -19.45098039 16.47058824 -17 15 C-13.3125 15.3125 -13.3125 15.3125 -10 16 C-10.33 14.35 -10.66 12.7 -11 11 C-13.92824652 10.02391783 -15.95613276 9.91773332 -19 10 C-15.04348594 7.89110336 -10.90734831 6.58509464 -6.65625 5.1953125 C-3.7483962 3.88677829 -2.14165263 2.32661354 0 0 Z " fill="#0D4835" transform="translate(340,579)"/>
<path d="M0 0 C0.99 0.495 0.99 0.495 2 1 C2 37.96 2 74.92 2 113 C7.94 113 13.88 113 20 113 C20 98.15 20 83.3 20 68 C20.33 68 20.66 68 21 68 C21 83.51 21 99.02 21 115 C14.07 115 7.14 115 0 115 C0 77.05 0 39.1 0 0 Z " fill="#253D31" transform="translate(378,436)"/>
<path d="M0 0 C6.30672023 1.99712807 12.27737009 4.36931345 18.30078125 7.109375 C21.23414436 8.07725747 22.20790933 8.19661029 25 7 C26.61707443 6.03350353 28.20025957 5.00864412 29.75 3.9375 C30.94882813 3.11572266 30.94882813 3.11572266 32.171875 2.27734375 C32.77515625 1.85582031 33.3784375 1.43429687 34 1 C34 1.99 34 2.98 34 4 C32.865625 4.5775 31.73125 5.155 30.5625 5.75 C27.62689703 7.35492635 27.62689703 7.35492635 26.0625 10.25 C26.041875 10.8275 26.02125 11.405 26 12 C25.34 12 24.68 12 24 12 C24.33 12.99 24.66 13.98 25 15 C24.34 15 23.68 15 23 15 C23.33 17.31 23.66 19.62 24 22 C24.99 22 25.98 22 27 22 C27 22.66 27 23.32 27 24 C26.34 24 25.68 24 25 24 C24.67 24.99 24.34 25.98 24 27 C23.94585937 26.35933594 23.89171875 25.71867187 23.8359375 25.05859375 C22.99947158 20.30207992 22.08040308 17.75870203 18.03515625 14.91796875 C14.45767418 13.02935384 10.75331142 11.50371775 7 10 C5.96230469 9.56558594 4.92460937 9.13117188 3.85546875 8.68359375 C1.58241626 7.75030897 -0.69644518 6.85454453 -3 6 C-1.125 1.125 -1.125 1.125 0 0 Z " fill="#CAA23F" transform="translate(181,458)"/>
<path d="M0 0 C1.98 0 3.96 0 6 0 C5.99363525 0.6705542 5.98727051 1.3411084 5.98071289 2.03198242 C5.97200146 5.08494255 6.01672002 8.13489076 6.0625 11.1875 C6.05154297 12.24259766 6.04058594 13.29769531 6.02929688 14.38476562 C5.99910134 20.06565384 5.99910134 20.06565384 8.62060547 24.85400391 C10.72959875 26.4319297 10.72959875 26.4319297 14 28 C13.34 28.33 12.68 28.66 12 29 C9.375 27.5625 9.375 27.5625 7 26 C6.67 26.99 6.34 27.98 6 29 C3.69 29.33 1.38 29.66 -1 30 C-1 29.34 -1 28.68 -1 28 C-2.32 27.34 -3.64 26.68 -5 26 C-4.35256836 25.61481201 -3.70513672 25.22962402 -3.03808594 24.83276367 C-0.78797804 23.16596849 -0.78797804 23.16596849 -0.45410156 20.5480957 C-0.4331543 19.60023193 -0.41220703 18.65236816 -0.390625 17.67578125 C-0.35839844 16.64775391 -0.32617188 15.61972656 -0.29296875 14.56054688 C-0.27878906 13.48869141 -0.26460937 12.41683594 -0.25 11.3125 C-0.22035156 10.22904297 -0.19070312 9.14558594 -0.16015625 8.02929688 C-0.08941156 5.35278941 -0.03673844 2.67715521 0 0 Z M4 29 C6 30 6 30 6 30 Z " fill="#BF9835" transform="translate(232,425)"/>
<path d="M0 0 C0.33 0 0.66 0 1 0 C1 6.93 1 13.86 1 21 C-13.52 21 -28.04 21 -43 21 C-43 29.91 -43 38.82 -43 48 C-30.46 48 -17.92 48 -5 48 C-5.33 53.61 -5.66 59.22 -6 65 C-6.33 65 -6.66 65 -7 65 C-7 60.05 -7 55.1 -7 50 C-19.21 50 -31.42 50 -44 50 C-44 40.1 -44 30.2 -44 20 C-29.48 20 -14.96 20 0 20 C0 13.4 0 6.8 0 0 Z " fill="#324F42" transform="translate(442,436)"/>
<path d="M0 0 C2 2 2 2 2.1953125 4.3828125 C2.17210937 5.28773438 2.14890625 6.19265625 2.125 7.125 C2.10695312 8.03507812 2.08890625 8.94515625 2.0703125 9.8828125 C2.04710937 10.58148438 2.02390625 11.28015625 2 12 C2.66 12 3.32 12 4 12 C2.42686828 16.72843614 -0.20641235 20.3433843 -3.125 24.3125 C-3.59292969 24.95767578 -4.06085938 25.60285156 -4.54296875 26.26757812 C-5.6905929 27.84848894 -6.84465477 29.42472301 -8 31 C-8.433125 30.54625 -8.86625 30.0925 -9.3125 29.625 C-11.10798342 27.79975666 -11.10798342 27.79975666 -14 26 C-13.32453125 25.13117187 -12.6490625 24.26234375 -11.953125 23.3671875 C-11.05197828 22.20320632 -10.15094253 21.03913923 -9.25 19.875 C-8.8065625 19.30523438 -8.363125 18.73546875 -7.90625 18.1484375 C-1.3184571 10.06312107 -1.3184571 10.06312107 0 0 Z " fill="#C9A343" transform="translate(210,500)"/>
<path d="M0 0 C0 6.6 0 13.2 0 20 C-12.21 20 -24.42 20 -37 20 C-36.67 19.34 -36.34 18.68 -36 18 C-24.78 18 -13.56 18 -2 18 C-2 12.72 -2 7.44 -2 2 C-13.55 2 -25.1 2 -37 2 C-37 1.67 -37 1.34 -37 1 C-32.05209374 0.85722082 -27.10417697 0.71481353 -22.15625 0.57275391 C-20.47232777 0.52435414 -18.78840848 0.47585197 -17.10449219 0.42724609 C-14.68685658 0.35747922 -12.26921072 0.28807821 -9.8515625 0.21875 C-9.0963028 0.19687622 -8.34104309 0.17500244 -7.56289673 0.15246582 C-2.22774341 0 -2.22774341 0 0 0 Z " fill="#0F3121" transform="translate(556,484)"/>
<path d="M0 0 C0.66 0.33 1.32 0.66 2 1 C0.8905928 4.48670834 -0.26337666 7.77484237 -2 11 C-2.66 11 -3.32 11 -4 11 C-4 12.65 -4 14.3 -4 16 C-4.66 16 -5.32 16 -6 16 C-9.43536461 27.31829948 -10.38120227 38.23052964 -10.3125 50 C-10.30827026 51.01565033 -10.30827026 51.01565033 -10.30395508 52.05181885 C-10.66850572 59.23264103 -10.66850572 59.23264103 -9 66 C-9.28112064 68.00800456 -9.61067967 70.01014051 -10 72 C-16.66085233 60.45452262 -14.29814149 38.401012 -11 26 C-8.50116322 16.73295707 -4.4493257 8.44871959 0 0 Z " fill="#102B1F" transform="translate(153,435)"/>
<path d="M0 0 C3.4375 0.875 3.4375 0.875 5.4375 3.875 C5.9478118 7.19202672 5.72449603 8.45554426 3.8125 11.25 C1.4375 12.875 1.4375 12.875 -1.625 12.875 C-4.5625 11.875 -4.5625 11.875 -6.5 10.125 C-7.5625 7.875 -7.5625 7.875 -7.4375 5.3125 C-5.82990391 0.83419661 -4.92782971 -0.17290631 0 0 Z " fill="#F0F6F4" transform="translate(326.5625,594.125)"/>
<path d="M0 0 C1.875 1.125 1.875 1.125 3 3 C3.39365568 6.14924548 3.52854531 8.11909116 1.875 10.875 C-0.85252465 12.51151479 -2.87973093 12.32502803 -6 12 C-9 10 -9 10 -9.3984375 8.125 C-9.39070313 7.42375 -9.38296875 6.7225 -9.375 6 C-9.38273437 5.29875 -9.39046875 4.5975 -9.3984375 3.875 C-8.40051164 -0.82112168 -3.84325308 -0.40033886 0 0 Z " fill="#F2F7F5" transform="translate(329,556)"/>
<path d="M0 0 C0.99 0.99 1.98 1.98 3 3 C2.01 4.32 1.02 5.64 0 7 C0.99 6.67 1.98 6.34 3 6 C3.66 7.32 4.32 8.64 5 10 C5.53109375 9.67257812 6.0621875 9.34515625 6.609375 9.0078125 C9.62694157 7.7357011 11.98693023 7.8040637 15.25 7.875 C16.32765625 7.89304687 17.4053125 7.91109375 18.515625 7.9296875 C19.74539063 7.96449219 19.74539063 7.96449219 21 8 C21 8.33 21 8.66 21 9 C20.31035156 9.01417969 19.62070312 9.02835937 18.91015625 9.04296875 C11.01993575 9.44343262 4.69478065 11.30521935 -1 17 C-1.32889388 18.85536424 -1.32889388 18.85536424 -1.31884766 20.99072266 C-1.33871735 21.81142242 -1.35858704 22.63212219 -1.37905884 23.47769165 C-1.39061005 24.36419403 -1.40216125 25.25069641 -1.4140625 26.1640625 C-1.43342865 27.07127045 -1.4527948 27.97847839 -1.4727478 28.91317749 C-1.53263216 31.81702204 -1.57896416 34.72090604 -1.625 37.625 C-1.66317165 39.59116333 -1.70222289 41.5573098 -1.7421875 43.5234375 C-1.83834091 48.3488217 -1.922339 53.17428418 -2 58 C-2.33 58 -2.66 58 -3 58 C-3.09900816 52.11015713 -3.17153481 46.22080055 -3.21972656 40.33032227 C-3.23981991 38.32730672 -3.26709965 36.32434968 -3.30175781 34.3215332 C-3.35037611 31.43946892 -3.37299152 28.55818134 -3.390625 25.67578125 C-3.42159271 24.33644279 -3.42159271 24.33644279 -3.45318604 22.970047 C-3.45473056 18.67325108 -3.38077417 16.58397312 -0.97558594 12.89526367 C-0.32364258 12.26982666 0.32830078 11.64438965 1 11 C0.34 11 -0.32 11 -1 11 C-1.103125 10.360625 -1.20625 9.72125 -1.3125 9.0625 C-1.539375 8.381875 -1.76625 7.70125 -2 7 C-2.99 6.67 -3.98 6.34 -5 6 C-3.35 4.02 -1.7 2.04 0 0 Z " fill="#BB9435" transform="translate(869,475)"/>
<path d="M0 0 C0.66 0 1.32 0 2 0 C2.20478598 4.16593199 2.32813027 8.33055793 2.4375 12.5 C2.49615234 13.67304687 2.55480469 14.84609375 2.61523438 16.0546875 C2.73249686 22.0183226 2.64920561 26.08406945 -1.27734375 30.78125 C-3.7331187 33.27696967 -5.53769047 34.41457841 -9 35 C-9 34.01 -9 33.02 -9 32 C-8.01 31.67 -7.02 31.34 -6 31 C-6.66 30.01 -7.32 29.02 -8 28 C-8.53916146 25.3397977 -8.73370098 22.70737337 -9 20 C-6.525 20.99 -6.525 20.99 -4 22 C-4 22.66 -4 23.32 -4 24 C-3.01 24.33 -2.02 24.66 -1 25 C-1 25.66 -1 26.32 -1 27 C-0.67 18.09 -0.34 9.18 0 0 Z " fill="#0B3425" transform="translate(341,578)"/>
<path d="M0 0 C1.65 1.65 3.3 3.3 5 5 C2.76504572 7.23495428 0.97585464 8.0024791 -1.9375 9.1875 C-3.25041016 9.73470703 -3.25041016 9.73470703 -4.58984375 10.29296875 C-7 11 -7 11 -10 10 C-10.66 9.34 -11.32 8.68 -12 8 C-12 8.66 -12 9.32 -12 10 C-13.65 10.33 -15.3 10.66 -17 11 C-16.67 10.34 -16.34 9.68 -16 9 C-17.98 9.33 -19.96 9.66 -22 10 C-19.47628023 8.31752015 -17.32228241 7.20792959 -14.55078125 6.0546875 C-13.70322266 5.70019531 -12.85566406 5.34570312 -11.98242188 4.98046875 C-11.10134766 4.61566406 -10.22027344 4.25085938 -9.3125 3.875 C-8.41982422 3.50246094 -7.52714844 3.12992187 -6.60742188 2.74609375 C-4.40610824 1.82789876 -2.20361674 0.9126506 0 0 Z " fill="#C19A3B" transform="translate(287,458)"/>
<path d="M0 0 C-0.0707373 0.63349365 -0.14147461 1.2669873 -0.21435547 1.91967773 C-1.11489249 11.08094055 -1.15235866 20.19583729 -1.13037109 29.39086914 C-1.12500348 32.0607672 -1.13034961 34.73049761 -1.13671875 37.40039062 C-1.13971296 45.98088901 -1.07210319 54.47079637 0 63 C1.485 63.495 1.485 63.495 3 64 C2.01 64.495 2.01 64.495 1 65 C-1.65357295 62.81745412 -2.88889778 61.64598873 -3.48101807 58.20318604 C-3.47213562 57.12841003 -3.46325317 56.05363403 -3.45410156 54.94628906 C-3.45364838 53.11484344 -3.45364838 53.11484344 -3.45318604 51.24639893 C-3.43254089 49.93274353 -3.41189575 48.61908813 -3.390625 47.265625 C-3.38316087 45.90371532 -3.37746874 44.54179488 -3.37347412 43.17987061 C-3.35823092 39.60229632 -3.31896181 36.02537578 -3.2746582 32.44805908 C-3.23367632 28.79488976 -3.21545697 25.14161438 -3.1953125 21.48828125 C-3.1524649 14.32518886 -3.08212736 7.16276946 -3 0 C-9.27 0 -15.54 0 -22 0 C-22 -0.33 -22 -0.66 -22 -1 C-19.0837882 -1.22201613 -16.16792256 -1.42808498 -13.25 -1.625 C-12.425 -1.68945312 -11.6 -1.75390625 -10.75 -1.8203125 C-9.95078125 -1.871875 -9.1515625 -1.9234375 -8.328125 -1.9765625 C-7.5949707 -2.02893066 -6.86181641 -2.08129883 -6.10644531 -2.13525391 C-3.65224559 -1.97767085 -2.11146787 -1.22264839 0 0 Z " fill="#FEFBDA" transform="translate(788,468)"/>
<path d="M0 0 C0.33 0 0.66 0 1 0 C1.8230363 13.68297852 2.12385692 27.29316778 2 41 C3.10794922 40.89171875 3.10794922 40.89171875 4.23828125 40.78125 C11.18313352 40.14588867 18.02781245 39.87647699 25 40 C21.51552238 43.48447762 17.91571781 43.12780625 13.10742188 43.13671875 C12.39134766 43.13285156 11.67527344 43.12898437 10.9375 43.125 C10.21755859 43.12886719 9.49761719 43.13273438 8.75585938 43.13671875 C5.57291361 43.13080799 3.04052138 43.01350713 0 42 C0 28.14 0 14.28 0 0 Z " fill="#F9ECC2" transform="translate(867,492)"/>
<path d="M0 0 C0.86140091 0.0028299 1.72280182 0.00565979 2.61030579 0.00857544 C5.36143894 0.01977013 8.1122465 0.04487329 10.86328125 0.0703125 C12.72851092 0.08034323 14.5937457 0.08946891 16.45898438 0.09765625 C21.03137545 0.11970712 25.60352314 0.15423201 30.17578125 0.1953125 C30.17578125 0.5253125 30.17578125 0.8553125 30.17578125 1.1953125 C22.37658428 2.78930896 14.86760862 3.3887282 6.92578125 3.3828125 C6.09916992 3.38345703 5.27255859 3.38410156 4.42089844 3.38476562 C-1.0577829 3.33668785 -6.38817163 2.87754733 -11.82421875 2.1953125 C-7.89117403 -0.42671731 -4.55796806 -0.05617277 0 0 Z " fill="#224134" transform="translate(286.82421875,539.8046875)"/>
<path d="M0 0 C1.28090028 3.84270085 0.4844352 5.55292032 -0.65234375 9.41796875 C-1.01650391 10.67158203 -1.38066406 11.92519531 -1.75585938 13.21679688 C-2.1495548 14.54041956 -2.54343742 15.86398658 -2.9375 17.1875 C-3.32826011 18.52255661 -3.71824355 19.85784081 -4.10742188 21.19335938 C-5.0639611 24.46448733 -6.0310003 27.73254151 -7 31 C-0.4 31 6.2 31 13 31 C13 31.66 13 32.32 13 33 C5.41 33 -2.18 33 -10 33 C-8.73835948 28.62121533 -7.4755599 24.24280092 -6.2097168 19.86523438 C-5.77933161 18.37552691 -5.34964046 16.88561875 -4.9206543 15.39550781 C-4.30439112 13.25532912 -3.68564639 11.11588146 -3.06640625 8.9765625 C-2.87470352 8.30879791 -2.68300079 7.64103333 -2.48548889 6.95303345 C-1.11387171 2.22774341 -1.11387171 2.22774341 0 0 Z " fill="#0C261A" transform="translate(567,519)"/>
<path d="M0 0 C0.33 0 0.66 0 1 0 C1 5.94 1 11.88 1 18 C-11.54 18 -24.08 18 -37 18 C-36.67 17.34 -36.34 16.68 -36 16 C-18.675 15.505 -18.675 15.505 -1 15 C-0.67 10.05 -0.34 5.1 0 0 Z " fill="#072A1C" transform="translate(436,486)"/>
<path d="M0 0 C1 4 1 4 0 7 C9.57 7 19.14 7 29 7 C28.67 5.35 28.34 3.7 28 2 C28.66 2.66 29.32 3.32 30 4 C29.67 5.65 29.34 7.3 29 9 C18.77 9 8.54 9 -2 9 C-1.34 6.03 -0.68 3.06 0 0 Z " fill="#03291A" transform="translate(592,501)"/>
<path d="M0 0 C3.96 0 7.92 0 12 0 C12 6.6 12 13.2 12 20 C10.02 20 8.04 20 6 20 C7.32 19.67 8.64 19.34 10 19 C9.67 15.04 9.34 11.08 9 7 C8.34 8.32 7.68 9.64 7 11 C7 7.7 7 4.4 7 1 C4.69 1 2.38 1 0 1 C0 0.67 0 0.34 0 0 Z " fill="#052A1A" transform="translate(221,561)"/>
<path d="M0 0 C0.33 0 0.66 0 1 0 C1 2.97 1 5.94 1 9 C7.27 9 13.54 9 20 9 C19.67 10.32 19.34 11.64 19 13 C18.67 12.34 18.34 11.68 18 11 C16.79601562 11.02320313 15.59203125 11.04640625 14.3515625 11.0703125 C12.77604785 11.08906863 11.20052652 11.10726899 9.625 11.125 C8.8309375 11.14175781 8.036875 11.15851562 7.21875 11.17578125 C5.14507985 11.19335473 3.07116759 11.10335168 1 11 C-1.1385485 8.8614515 -1.42655063 7.86724686 -2 5 C-3.32 5.33 -4.64 5.66 -6 6 C-4 4 -2 2 0 0 Z " fill="#FFFCE0" transform="translate(814,542)"/>
<path d="M0 0 C2.30529132 2.30529132 2.6464497 3.68066632 3.5078125 6.7890625 C3.7464502 7.63678223 3.98508789 8.48450195 4.23095703 9.35791016 C4.52599121 10.4360498 4.82102539 11.51418945 5.125 12.625 C6.07375 16.04875 7.0225 19.4725 8 23 C0.41 23 -7.18 23 -15 23 C-15.33 20.69 -15.66 18.38 -16 16 C-15.67 16.66 -15.34 17.32 -15 18 C-14.34 18.33 -13.68 18.66 -13 19 C-13.33 19.99 -13.66 20.98 -14 22 C-8.06 21.67 -2.12 21.34 4 21 C3.34538718 16.41771028 2.70785338 12.59497676 1.4375 8.25 C0.57397356 5.2916989 0 3.09404996 0 0 Z " fill="#091F15" transform="translate(648,529)"/>
<path d="M0 0 C0.33 0 0.66 0 1 0 C1.33 12.21 1.66 24.42 2 37 C2.99 37.33 3.98 37.66 5 38 C5 37.34 5 36.68 5 36 C6.32 36.33 7.64 36.66 9 37 C7.87926138 37.83905565 6.75325453 38.67107831 5.625 39.5 C4.99851562 39.9640625 4.37203125 40.428125 3.7265625 40.90625 C2 42 2 42 0 42 C0 28.14 0 14.28 0 0 Z " fill="#FEFCE3" transform="translate(868,433)"/>
<path d="M0 0 C0.99 0 1.98 0 3 0 C3 7.59 3 15.18 3 23 C-0.375 18.5 -0.375 18.5 -0.29296875 14.453125 C-0.28330078 13.60878906 -0.27363281 12.76445312 -0.26367188 11.89453125 C-0.23853516 11.02183594 -0.21339844 10.14914062 -0.1875 9.25 C-0.17396484 8.36183594 -0.16042969 7.47367187 -0.14648438 6.55859375 C-0.11121309 4.37177422 -0.06192752 2.18620034 0 0 Z " fill="#D6A93C" transform="translate(234,426)"/>
<path d="M0 0 C17.07829978 -0.66442953 17.07829978 -0.66442953 24 3 C24.33 3.99 24.66 4.98 25 6 C25.66 6 26.32 6 27 6 C26.67 6.66 26.34 7.32 26 8 C23.4609375 6.48632812 23.4609375 6.48632812 20.921875 4.97265625 C13.16384096 1.04633415 2.31113092 2.41692744 -6 4 C-5.34 3.34 -4.68 2.68 -4 2 C-2.68 2 -1.36 2 0 2 C0 1.34 0 0.68 0 0 Z " fill="#FCF7D7" transform="translate(883,465)"/>
<path d="M0 0 C0 0.33 0 0.66 0 1 C-1.26457031 1.03867187 -1.26457031 1.03867187 -2.5546875 1.078125 C-3.65039062 1.13484375 -4.74609375 1.1915625 -5.875 1.25 C-6.96554688 1.29640625 -8.05609375 1.3428125 -9.1796875 1.390625 C-12.1332065 1.68846128 -12.1332065 1.68846128 -13.3828125 4.046875 C-13.58648437 4.69140625 -13.79015625 5.3359375 -14 6 C-14 5.01 -14 4.02 -14 3 C-15.24136719 3.42152344 -16.48273438 3.84304688 -17.76171875 4.27734375 C-19.40359178 4.83088951 -21.04552188 5.38426604 -22.6875 5.9375 C-23.50412109 6.21529297 -24.32074219 6.49308594 -25.16210938 6.77929688 C-29.0845344 8.09735873 -32.90130514 9.34053586 -37 10 C-26.87636047 1.59223158 -12.69478326 -0.4271142 0 0 Z " fill="#0D291D" transform="translate(229,389)"/>
<path d="M0 0 C4.37314109 4.37314109 3.29851157 10.76676279 3.375 16.5625 C3.41238281 17.60986328 3.44976563 18.65722656 3.48828125 19.73632812 C3.57109314 27.13879069 2.32514918 32.87360223 -2 39 C-2.99 39.66 -3.98 40.32 -5 41 C-5 39.68 -5 38.36 -5 37 C-4.01 37 -3.02 37 -2 37 C-2 35.68 -2 34.36 -2 33 C-1.34 33 -0.68 33 0 33 C0.78841864 29.51905734 1.12828808 26.30091152 1.1328125 22.734375 C1.13410156 21.76242187 1.13539063 20.79046875 1.13671875 19.7890625 C1.13285156 18.78617187 1.12898437 17.78328125 1.125 16.75 C1.12886719 15.73164063 1.13273438 14.71328125 1.13671875 13.6640625 C1.13478516 12.21386719 1.13478516 12.21386719 1.1328125 10.734375 C1.13168457 9.84975586 1.13055664 8.96513672 1.12939453 8.05371094 C1.22769098 6.00727625 1.22769098 6.00727625 0 5 C-0.04063832 3.33382885 -0.042721 1.66611905 0 0 Z " fill="#FAF4D0" transform="translate(897,491)"/>
<path d="M0 0 C1.33998047 0.31324219 1.33998047 0.31324219 2.70703125 0.6328125 C3.60808594 0.83648437 4.50914062 1.04015625 5.4375 1.25 C6.46810547 1.50136719 6.46810547 1.50136719 7.51953125 1.7578125 C7.84953125 2.7478125 8.17953125 3.7378125 8.51953125 4.7578125 C7.52953125 4.7578125 6.53953125 4.7578125 5.51953125 4.7578125 C5.51953125 5.4178125 5.51953125 6.0778125 5.51953125 6.7578125 C2.21953125 6.0978125 -1.08046875 5.4378125 -4.48046875 4.7578125 C-4.81046875 3.7678125 -5.14046875 2.7778125 -5.48046875 1.7578125 C-2.48046875 -0.2421875 -2.48046875 -0.2421875 0 0 Z " fill="#CEA43E" transform="translate(194.48046875,464.2421875)"/>
<path d="M0 0 C2 2 2 2 2.1953125 4.3828125 C2.17210937 5.28773438 2.14890625 6.19265625 2.125 7.125 C2.10695312 8.03507812 2.08890625 8.94515625 2.0703125 9.8828125 C2.04710937 10.58148438 2.02390625 11.28015625 2 12 C2.66 12 3.32 12 4 12 C2.75023244 15.65316671 2.32901247 16.78065836 -1 19 C-0.67 17.68 -0.34 16.36 0 15 C-0.99 15.99 -1.98 16.98 -3 18 C-3 17.01 -3 16.02 -3 15 C-3.66 14.67 -4.32 14.34 -5 14 C-4.175 12.989375 -3.35 11.97875 -2.5 10.9375 C0.17261016 7.24854513 0.46733615 4.57989423 0 0 Z " fill="#C0993C" transform="translate(210,500)"/>
<path d="M0 0 C0.66 0 1.32 0 2 0 C1.80664062 0.57105469 1.61328125 1.14210938 1.4140625 1.73046875 C-0.1758429 6.68121379 -1.29013075 11.46942415 -2 16.625 C-2.72577248 21.82226906 -3.92504314 26.18987274 -6 31 C-7.29858836 27.32803418 -6.70230093 24.69994482 -5.8203125 20.95703125 C-5.55089844 19.80138672 -5.28148437 18.64574219 -5.00390625 17.45507812 C-4.71386719 16.25302734 -4.42382812 15.05097656 -4.125 13.8125 C-3.84269531 12.59884766 -3.56039063 11.38519531 -3.26953125 10.13476562 C-1.14709249 1.14709249 -1.14709249 1.14709249 0 0 Z " fill="#FAF3CC" transform="translate(268,473)"/>
<path d="M0 0 C0.66 0.33 1.32 0.66 2 1 C1.50628906 1.33773438 1.01257813 1.67546875 0.50390625 2.0234375 C-0.13675781 2.46945312 -0.77742187 2.91546875 -1.4375 3.375 C-2.07558594 3.81585938 -2.71367187 4.25671875 -3.37109375 4.7109375 C-5.13740928 5.92160853 -5.13740928 5.92160853 -6 8 C-7.98 8 -9.96 8 -12 8 C-13 5 -13 5 -13 2 C-12.01 1.67 -11.02 1.34 -10 1 C-9.34 1.33 -8.68 1.66 -8 2 C-8 2.66 -8 3.32 -8 4 C-3.70111387 2.48134786 -3.70111387 2.48134786 0 0 Z " fill="#0C3923" transform="translate(244,417)"/>
<path d="M0 0 C3.19124845 4.78687268 2.33326278 10.28171241 2.31567383 15.87890625 C2.31251091 17.9927105 2.33599013 20.10511846 2.36132812 22.21875 C2.36360095 23.56249824 2.36430469 24.90625023 2.36328125 26.25 C2.36626221 27.47203125 2.36924316 28.6940625 2.37231445 29.953125 C2 33 2 33 0.47729492 34.921875 C-0.25396606 35.45554687 -0.25396606 35.45554687 -1 36 C-0.9285376 35.43619629 -0.8570752 34.87239258 -0.78344727 34.29150391 C0.05519857 26.97148078 0.11584345 19.73639542 0.0625 12.375 C0.05798828 11.18003906 0.05347656 9.98507812 0.04882812 8.75390625 C0.03715603 5.83588353 0.02078326 2.91796963 0 0 Z " fill="#FFFEDC" transform="translate(919,490)"/>
<path d="M0 0 C2.1953125 0.296875 2.1953125 0.296875 5.6953125 1.421875 C5.6953125 1.751875 5.6953125 2.081875 5.6953125 2.421875 C4.6021875 2.48375 3.5090625 2.545625 2.3828125 2.609375 C-1.4143807 3.01334672 -1.4143807 3.01334672 -2.9921875 5.796875 C-3.641875 7.09625 -3.641875 7.09625 -4.3046875 8.421875 C-5.63317441 9.42830448 -6.96619079 10.42879679 -8.3046875 11.421875 C-9.5563342 13.50522135 -9.5563342 13.50522135 -10.3046875 15.421875 C-10.9646875 15.421875 -11.6246875 15.421875 -12.3046875 15.421875 C-10.30280784 9.82065617 -6.40033548 1.17158683 0 0 Z " fill="#FCF5D6" transform="translate(219.3046875,508.578125)"/>
<path d="M0 0 C0.66 0.33 1.32 0.66 2 1 C-1.35711608 4.07042161 -3.6651529 4.37562309 -8.15625 4.36328125 C-9.34347656 4.36263672 -10.53070312 4.36199219 -11.75390625 4.36132812 C-12.99011719 4.34521484 -14.22632813 4.32910156 -15.5 4.3125 C-17.35431641 4.31733398 -17.35431641 4.31733398 -19.24609375 4.32226562 C-29.27572873 4.26237095 -29.27572873 4.26237095 -33 2 C-31.87356079 2.01571045 -31.87356079 2.01571045 -30.72436523 2.03173828 C-27.29544471 2.07351891 -23.86657793 2.09939622 -20.4375 2.125 C-18.66536133 2.15013672 -18.66536133 2.15013672 -16.85742188 2.17578125 C-10.7816974 2.20981892 -5.75436441 1.92081168 0 0 Z " fill="#FDF7D6" transform="translate(897,549)"/>
<path d="M0 0 C2 1 2 1 2.79370117 3.10131836 C3.04095947 4.00503174 3.28821777 4.90874512 3.54296875 5.83984375 C3.81173828 6.82017578 4.08050781 7.80050781 4.35742188 8.81054688 C4.63134766 9.84244141 4.90527344 10.87433594 5.1875 11.9375 C5.47302734 12.96552734 5.75855469 13.99355469 6.05273438 15.05273438 C8.12820496 22.74359009 8.12820496 22.74359009 7 25 C6.67 23.68 6.34 22.36 6 21 C5.34 21 4.68 21 4 21 C3.86722656 20.24074219 3.73445312 19.48148437 3.59765625 18.69921875 C3.33275391 17.20841797 3.33275391 17.20841797 3.0625 15.6875 C2.80146484 14.20830078 2.80146484 14.20830078 2.53515625 12.69921875 C1.87236469 9.35623359 1.44186599 7.44186599 -1 5 C-0.625 2.375 -0.625 2.375 0 0 Z " fill="#FBF3D0" transform="translate(201,474)"/>
<path d="M0 0 C0.66 0.33 1.32 0.66 2 1 C1.01 1.66 0.02 2.32 -1 3 C-1.67147918 5.44063441 -1.67147918 5.44063441 -2 8 C-2.33 8.99 -2.66 9.98 -3 11 C-3.22560676 13.39254576 -3.40848595 15.78928123 -3.5625 18.1875 C-3.64628906 19.45980469 -3.73007812 20.73210937 -3.81640625 22.04296875 C-3.87699219 23.01878906 -3.93757812 23.99460937 -4 25 C-4.33 25 -4.66 25 -5 25 C-5.14539953 21.58378212 -5.23409725 18.16836009 -5.3125 14.75 C-5.35439453 13.78191406 -5.39628906 12.81382812 -5.43945312 11.81640625 C-5.56390832 4.5980051 -5.56390832 4.5980051 -2.48046875 1.328125 C-1.66191406 0.88984375 -0.84335937 0.4515625 0 0 Z " fill="#FDFAE3" transform="translate(873,487)"/>
<path d="M0 0 C0.66 0 1.32 0 2 0 C3.01259619 3.36992013 3.16555609 6.48897481 3.1875 10 C3.20167969 11.03125 3.21585937 12.0625 3.23046875 13.125 C3.00276947 15.96545203 2.46504061 17.59107948 1 20 C0 19 0 19 -0.11352539 17.14233398 C-0.10828857 16.35157471 -0.10305176 15.56081543 -0.09765625 14.74609375 C-0.09443359 13.89208984 -0.09121094 13.03808594 -0.08789062 12.15820312 C-0.07951172 11.26037109 -0.07113281 10.36253906 -0.0625 9.4375 C-0.05798828 8.53580078 -0.05347656 7.63410156 -0.04882812 6.70507812 C-0.03700225 4.46998686 -0.0205222 2.23502563 0 0 Z " fill="#EFFBF7" transform="translate(443,436)"/>
<path d="M0 0 C0.33 0 0.66 0 1 0 C1 5.61 1 11.22 1 17 C3.64 17.66 6.28 18.32 9 19 C9 19.33 9 19.66 9 20 C5.37 20 1.74 20 -2 20 C-1.34 13.4 -0.68 6.8 0 0 Z " fill="#0B271A" transform="translate(315,481)"/>
<path d="M0 0 C1.32 0 2.64 0 4 0 C4 0.99 4 1.98 4 3 C3.34 3 2.68 3 2 3 C2 3.66 2 4.32 2 5 C-1.96 5.99 -5.92 6.98 -10 8 C-10 7.01 -10 6.02 -10 5 C-7.69 5 -5.38 5 -3 5 C-2.690625 4.360625 -2.38125 3.72125 -2.0625 3.0625 C-1 1 -1 1 0 0 Z " fill="#C59E3A" transform="translate(254,500)"/>
<path d="M0 0 C0.44730469 0.40992188 0.89460937 0.81984375 1.35546875 1.2421875 C4.73744485 4.25640074 7.579668 6.66050545 12 8 C9.01758453 8.77321882 6.02419525 9.41196203 3 10 C2.49596232 8.70990357 1.99690074 7.41786211 1.5 6.125 C1.2215625 5.40570312 0.943125 4.68640625 0.65625 3.9453125 C0 2 0 2 0 0 Z " fill="#F9F6DF" transform="translate(769,542)"/>
<path d="M0 0 C2.34609953 2.34609953 2.61437192 3.674059 3.3125 6.875 C3.51488281 7.73867188 3.71726563 8.60234375 3.92578125 9.4921875 C4.01909114 12.64507956 3.09119704 13.72350702 1 16 C0.34 15.67 -0.32 15.34 -1 15 C-1 12 -1 12 -0.5 9.1875 C-0.01032387 6.06581464 0.07508141 3.15341919 0 0 Z " fill="#163621" transform="translate(177,447)"/>
<path d="M0 0 C2.375 0.625 2.375 0.625 5 2 C6.3125 5.125 6.3125 5.125 7 8 C7.66 8 8.32 8 9 8 C9 10.97 9 13.94 9 17 C8.34 15.68 7.68 14.36 7 13 C5.98544595 11.12159489 4.96420908 9.24678903 3.9375 7.375 C1.09722222 2.19444444 1.09722222 2.19444444 0 0 Z " fill="#FCF5D9" transform="translate(910,473)"/>
<path d="M0 0 C4.38889325 0.66498383 7.9811485 2.18757677 12 4 C8.86650268 5.04449911 8.01031744 4.93423645 5 4 C4.01 5.485 4.01 5.485 3 7 C0.64828869 6.40138258 -1.6859378 5.73075648 -4 5 C-4.33 4.34 -4.66 3.68 -5 3 C-2.03 3.495 -2.03 3.495 1 4 C1.33 3.34 1.66 2.68 2 2 C1.34 1.34 0.68 0.68 0 0 Z " fill="#B99437" transform="translate(187,461)"/>
<path d="M0 0 C2.31 0.33 4.62 0.66 7 1 C2.59001506 5.04248619 -2.68762895 5.91741532 -8.5 6.125 C-9.325 6.08375 -10.15 6.0425 -11 6 C-7.86501708 4.14223235 -5.62528568 3.79859524 -2 4 C-1.34 2.68 -0.68 1.36 0 0 Z " fill="#0C2E1E" transform="translate(327,572)"/>
<path d="M0 0 C0.66 0.33 1.32 0.66 2 1 C0.8905928 4.48670834 -0.26337666 7.77484237 -2 11 C-2.99 11 -3.98 11 -5 11 C-3.77472971 6.94718288 -2.30119506 3.55639236 0 0 Z " fill="#153629" transform="translate(153,435)"/>
<path d="M0 0 C0.99 0.33 1.98 0.66 3 1 C-2.40537123 4.72370018 -5.63578886 6.13294851 -12.1875 6.0625 C-13.81751953 6.04896484 -13.81751953 6.04896484 -15.48046875 6.03515625 C-16.31191406 6.02355469 -17.14335938 6.01195312 -18 6 C-18 5.67 -18 5.34 -18 5 C-17.26394531 4.93941406 -16.52789063 4.87882813 -15.76953125 4.81640625 C-14.79371094 4.73261719 -13.81789063 4.64882813 -12.8125 4.5625 C-11.84957031 4.48128906 -10.88664063 4.40007813 -9.89453125 4.31640625 C-7.21350398 4.02333849 -4.6337014 3.57296246 -2 3 C-2 2.34 -2 1.68 -2 1 C-1.34 0.67 -0.68 0.34 0 0 Z " fill="#FAF2CE" transform="translate(809,528)"/>
<path d="M0 0 C-2.85306797 2.32472205 -5.54074837 3.7508258 -9 5 C-9 4.34 -9 3.68 -9 3 C-9.66 3 -10.32 3 -11 3 C-11 2.34 -11 1.68 -11 1 C-6.8204355 -1.78637633 -4.85331323 -0.79562512 0 0 Z " fill="#E9EFEC" transform="translate(196,396)"/>
<path d="M0 0 C-2 3 -2 3 -4.3828125 3.51171875 C-5.28773438 3.56972656 -6.19265625 3.62773438 -7.125 3.6875 C-8.49011719 3.78611328 -8.49011719 3.78611328 -9.8828125 3.88671875 C-10.93082031 3.94279297 -10.93082031 3.94279297 -12 4 C-12 3.01 -12 2.02 -12 1 C-7.95858806 0.36605303 -4.0934693 -0.12404452 0 0 Z " fill="#143B2B" transform="translate(319,576)"/>
<path d="M0 0 C3.63 0.33 7.26 0.66 11 1 C11 1.99 11 2.98 11 4 C8.03 3.67 5.06 3.34 2 3 C2 2.34 2 1.68 2 1 C1.34 0.67 0.68 0.34 0 0 Z " fill="#1B4032" transform="translate(216,577)"/>
<path d="M0 0 C1.9375 0.875 1.9375 0.875 3.9375 3.875 C0.6375 4.535 -2.6625 5.195 -6.0625 5.875 C-4.92553344 2.46410031 -3.96976875 -0.24059205 0 0 Z " fill="#CFAB4B" transform="translate(288.0625,460.125)"/>
<path d="M0 0 C3.93673644 1.31224548 6.22719294 2.91910327 9 6 C7.68 5.67 6.36 5.34 5 5 C5 5.66 5 6.32 5 7 C4.01 7 3.02 7 2 7 C1.34 4.69 0.68 2.38 0 0 Z " fill="#BE9D3F" transform="translate(256,461)"/>
<path d="M0 0 C0.66 0.33 1.32 0.66 2 1 C1.54917531 2.46067199 1.08906463 3.91848032 0.625 5.375 C0.36976563 6.18710937 0.11453125 6.99921875 -0.1484375 7.8359375 C-1 10 -1 10 -3 12 C-4.22524752 7.58910891 -4.22524752 7.58910891 -3.1875 4.875 C-2.14868136 3.23476005 -1.076966 1.615449 0 0 Z " fill="#EDF5F2" transform="translate(149,437)"/>
<path d="M0 0 C0.66 0.33 1.32 0.66 2 1 C-1.96 3.64 -5.92 6.28 -10 9 C-10.66 8.67 -11.32 8.34 -12 8 C-11.67 7.01 -11.34 6.02 -11 5 C-8.70401807 3.91698965 -6.36522558 2.92203709 -4 2 C-3.236875 1.5875 -2.47375 1.175 -1.6875 0.75 C-1.130625 0.5025 -0.57375 0.255 0 0 Z " fill="#0C2C1E" transform="translate(196,411)"/>
<path d="M0 0 C3.3 0 6.6 0 10 0 C10 0.99 10 1.98 10 3 C7.03 3 4.06 3 1 3 C0.67 2.01 0.34 1.02 0 0 Z " fill="#083320" transform="translate(230,388)"/>
<path d="M0 0 C-0.33 0.99 -0.66 1.98 -1 3 C-3.14453125 3.984375 -3.14453125 3.984375 -5.8125 4.75 C-6.68519531 5.01296875 -7.55789063 5.2759375 -8.45703125 5.546875 C-11.05434119 6.00968292 -12.53376528 5.85082224 -15 5 C-12.8765984 4.16260219 -10.7512272 3.33019717 -8.625 2.5 C-7.44164062 2.0359375 -6.25828125 1.571875 -5.0390625 1.09375 C-2 0 -2 0 0 0 Z " fill="#FBF2D3" transform="translate(292,464)"/>
<path d="M0 0 C0.33 0 0.66 0 1 0 C1 2.97 1 5.94 1 9 C0.34 9 -0.32 9 -1 9 C-1.33 7.68 -1.66 6.36 -2 5 C-3.32 5.33 -4.64 5.66 -6 6 C-4 4 -2 2 0 0 Z " fill="#F4E8B7" transform="translate(814,542)"/>
<path d="M0 0 C5.95507399 0.3916035 10.62819824 1.37124595 16 4 C12.52176885 5.15941038 10.54104422 4.70820884 7 4 C7 3.34 7 2.68 7 2 C4.69 1.67 2.38 1.34 0 1 C0 0.67 0 0.34 0 0 Z " fill="#0B2519" transform="translate(255,391)"/>
<path d="M0 0 C0.66 0.33 1.32 0.66 2 1 C1.67 3.97 1.34 6.94 1 10 C0.34 10 -0.32 10 -1 10 C-1.66 11.32 -2.32 12.64 -3 14 C-3.6875 12.375 -3.6875 12.375 -4 10 C-3.06833174 7.96726926 -2.0650015 5.96615661 -1 4 C-0.31363375 1.76474965 -0.31363375 1.76474965 0 0 Z " fill="#174838" transform="translate(584,526)"/>
<path d="M0 0 C3 1 3 1 5 4 C3.35 4.33 1.7 4.66 0 5 C0 5.99 0 6.98 0 8 C-0.66 7.67 -1.32 7.34 -2 7 C-2 6.01 -2 5.02 -2 4 C-1.34 4 -0.68 4 0 4 C-0.33 3.01 -0.66 2.02 -1 1 C-0.67 0.67 -0.34 0.34 0 0 Z " fill="#EDF1F0" transform="translate(252,536)"/>
<path d="M0 0 C0 3.39593478 -0.52165948 4.06619881 -2.5 6.6875 C-2.9640625 7.31011719 -3.428125 7.93273437 -3.90625 8.57421875 C-4.2671875 9.04472656 -4.628125 9.51523437 -5 10 C-6.04187157 6.87438528 -6.23843794 5.95319818 -5 3 C-3 1.8125 -3 1.8125 -1 1 C-0.67 0.67 -0.34 0.34 0 0 Z " fill="#BA9739" transform="translate(208,519)"/>
<path d="M0 0 C1.0625 1.8125 1.0625 1.8125 2 4 C1.67 4.99 1.34 5.98 1 7 C0.01 7.33 -0.98 7.66 -2 8 C-2.6875 5.6875 -2.6875 5.6875 -3 3 C-1.5625 1.1875 -1.5625 1.1875 0 0 Z " fill="#F2F8F4" transform="translate(557,544)"/>
<path d="M0 0 C2.97 0.33 5.94 0.66 9 1 C9 1.99 9 2.98 9 4 C6.36 3.67 3.72 3.34 1 3 C0.67 2.01 0.34 1.02 0 0 Z " fill="#1C4033" transform="translate(263,537)"/>
<path d="M0 0 C0.66 0.33 1.32 0.66 2 1 C1.34 3.31 0.68 5.62 0 8 C-1.32 8.33 -2.64 8.66 -4 9 C-3.52418802 7.68628013 -3.04424851 6.37405454 -2.5625 5.0625 C-2.29566406 4.33160156 -2.02882813 3.60070312 -1.75390625 2.84765625 C-1 1 -1 1 0 0 Z " fill="#ECF3F1" transform="translate(588,440)"/>
<path d="M0 0 C3.3 0.99 6.6 1.98 10 3 C9.67 3.66 9.34 4.32 9 5 C5.65626525 4.44271087 2.96687001 3.64826111 0 2 C0 1.34 0 0.68 0 0 Z " fill="#0F2E21" transform="translate(253,583)"/>
<path d="M0 0 C0.33 0.99 0.66 1.98 1 3 C-2.26760563 8.63380282 -2.26760563 8.63380282 -5 10 C-5 8.68 -5 7.36 -5 6 C-4.01 6 -3.02 6 -2 6 C-2 4.68 -2 3.36 -2 2 C-1.34 2 -0.68 2 0 2 C0 1.34 0 0.68 0 0 Z " fill="#FEFADC" transform="translate(897,522)"/>
<path d="M0 0 C0.33 0 0.66 0 1 0 C1.37211538 7.56634615 1.37211538 7.56634615 -0.51171875 9.76171875 C-1.00285156 10.17035156 -1.49398437 10.57898438 -2 11 C-1.85957123 9.35369672 -1.71250671 7.70795821 -1.5625 6.0625 C-1.48128906 5.14597656 -1.40007813 4.22945312 -1.31640625 3.28515625 C-1 1 -1 1 0 0 Z " fill="#FBF3D2" transform="translate(920,515)"/>
<path d="M0 0 C-2 2 -2 2 -4.1640625 2.1953125 C-5.38222656 2.16050781 -5.38222656 2.16050781 -6.625 2.125 C-7.44226563 2.10695313 -8.25953125 2.08890625 -9.1015625 2.0703125 C-9.72804687 2.04710937 -10.35453125 2.02390625 -11 2 C-6.98764085 -0.6749061 -4.6342454 -1.48957888 0 0 Z " fill="#FAF3D9" transform="translate(260,505)"/>
<path d="M0 0 C2.475 0.495 2.475 0.495 5 1 C5.33 3.31 5.66 5.62 6 8 C4 6.625 4 6.625 2 5 C2 4.34 2 3.68 2 3 C1.34 2.67 0.68 2.34 0 2 C0 1.34 0 0.68 0 0 Z " fill="#083423" transform="translate(152,504)"/>
<path d="M0 0 C0.33 0.99 0.66 1.98 1 3 C1.66 3.33 2.32 3.66 3 4 C2.33333333 6.66666667 1.66666667 9.33333333 1 12 C0.63762737 10.37681021 0.28534843 8.7513642 -0.0625 7.125 C-0.25972656 6.22007812 -0.45695313 5.31515625 -0.66015625 4.3828125 C-1 2 -1 2 0 0 Z " fill="#EDF5F1" transform="translate(643,501)"/>
<path d="M0 0 C1.32 0.33 2.64 0.66 4 1 C2.87926138 1.83905565 1.75325453 2.67107831 0.625 3.5 C-0.00148438 3.9640625 -0.62796875 4.428125 -1.2734375 4.90625 C-3 6 -3 6 -5 6 C-4.67 4.35 -4.34 2.7 -4 1 C-2.02 1.495 -2.02 1.495 0 2 C0 1.34 0 0.68 0 0 Z " fill="#FBF4D5" transform="translate(873,469)"/>
<path d="M0 0 C0 0.99 0 1.98 0 3 C-1.6796875 4.421875 -1.6796875 4.421875 -3.875 5.75 C-4.59429687 6.19859375 -5.31359375 6.6471875 -6.0546875 7.109375 C-6.69664062 7.40328125 -7.33859375 7.6971875 -8 8 C-8.66 7.67 -9.32 7.34 -10 7 C-6.7 4.69 -3.4 2.38 0 0 Z " fill="#B5933F" transform="translate(215,459)"/>
<path d="M0 0 C1 3 1 3 1 5 C0.34 5 -0.32 5 -1 5 C-1.99 8.465 -1.99 8.465 -3 12 C-4.12668965 8.61993106 -3.89636912 8.0359269 -2.625 4.875 C-2.34914062 4.17117188 -2.07328125 3.46734375 -1.7890625 2.7421875 C-1 1 -1 1 0 0 Z " fill="#0C291C" transform="translate(148,446)"/>
<path d="M0 0 C5.94 0.99 5.94 0.99 12 2 C12 2.33 12 2.66 12 3 C8.37 3 4.74 3 1 3 C0.67 2.01 0.34 1.02 0 0 Z " fill="#FBF3D2" transform="translate(848,548)"/>
<path d="M0 0 C0.66 0.33 1.32 0.66 2 1 C2.4140625 3.06640625 2.4140625 3.06640625 2.625 5.5625 C2.69976562 6.38878906 2.77453125 7.21507812 2.8515625 8.06640625 C2.92503906 9.02353516 2.92503906 9.02353516 3 10 C0.9375 7.8125 0.9375 7.8125 -1 5 C-0.75 2.1875 -0.75 2.1875 0 0 Z " fill="#FCF8DE" transform="translate(201,474)"/>
<path d="M0 0 C0.66 0.33 1.32 0.66 2 1 C0.02 3.31 -1.96 5.62 -4 8 C-4.66 7.01 -5.32 6.02 -6 5 C-4.02 3.35 -2.04 1.7 0 0 Z " fill="#143428" transform="translate(175,409)"/>
<path d="M0 0 C0.66 0.66 1.32 1.32 2 2 C1.625 4.625 1.625 4.625 1 7 C-0.65 5.35 -2.3 3.7 -4 2 C-2.68 1.34 -1.36 0.68 0 0 Z " fill="#E8F0EC" transform="translate(302,410)"/>
<path d="M0 0 C2.97 0.33 5.94 0.66 9 1 C8.67 1.66 8.34 2.32 8 3 C5.69 3 3.38 3 1 3 C0.67 2.01 0.34 1.02 0 0 Z " fill="#173F31" transform="translate(266,575)"/>
<path d="M0 0 C0.99 0.33 1.98 0.66 3 1 C0.25 7.875 0.25 7.875 -2 9 C-1.34 6.03 -0.68 3.06 0 0 Z " fill="#E4F0EC" transform="translate(585,532)"/>
<path d="M0 0 C1.9375 0.8125 1.9375 0.8125 4.9375 3.8125 C1.3075 3.1525 -2.3225 2.4925 -6.0625 1.8125 C-2.0625 -0.1875 -2.0625 -0.1875 0 0 Z " fill="#E4EFEA" transform="translate(322.0625,509.1875)"/>
<path d="M0 0 C0.66 0.33 1.32 0.66 2 1 C2 3.31 2 5.62 2 8 C1.01 8.495 1.01 8.495 0 9 C-1.125 2.25 -1.125 2.25 0 0 Z " fill="#EFF5F1" transform="translate(633,466)"/>
<path d="M0 0 C0 0.66 0 1.32 0 2 C-1.98 2.99 -1.98 2.99 -4 4 C-4.99 3.01 -5.98 2.02 -7 1 C-4.53721199 -0.231394 -2.7204945 -0.07159196 0 0 Z " fill="#F8F5E0" transform="translate(811,548)"/>
<path d="M0 0 C2 2 2 2 2 5 C2.99 5 3.98 5 5 5 C5 5.66 5 6.32 5 7 C4.34 7 3.68 7 3 7 C2.67 7.99 2.34 8.98 2 10 C1.34 6.7 0.68 3.4 0 0 Z " fill="#B89238" transform="translate(203,475)"/>
<path d="M0 0 C0.66 0 1.32 0 2 0 C1.01 3.3 0.02 6.6 -1 10 C-1.33 10 -1.66 10 -2 10 C-1.85950482 8.52031676 -1.71245174 7.04125484 -1.5625 5.5625 C-1.48128906 4.73878906 -1.40007812 3.91507812 -1.31640625 3.06640625 C-1 1 -1 1 0 0 Z " fill="#FEF8D9" transform="translate(268,473)"/>
<path d="M0 0 C2 1 4 2 6 3 C6 3.66 6 4.32 6 5 C5.01 5.33 4.02 5.66 3 6 C0 2.25 0 2.25 0 0 Z " fill="#ECF3EF" transform="translate(219,415)"/>
<path d="M0 0 C1.98 0.99 3.96 1.98 6 3 C4.1875 4.0625 4.1875 4.0625 2 5 C1.01 4.67 0.02 4.34 -1 4 C-0.67 2.68 -0.34 1.36 0 0 Z " fill="#EEF4F0" transform="translate(212,410)"/>
</svg>
